<?xml version="1.0" encoding="UTF-8"?>
<svg width="800" height="600" xmlns="http://www.w3.org/2000/svg">
  <defs>
        <linearGradient id="bg" x1="0%" y1="0%" x2="100%" y2="100%">
          <stop offset="0%" style="stop-color:#f5f5f5;stop-opacity:1" />
          <stop offset="100%" style="stop-color:#e0e0e0;stop-opacity:1" />
        </linearGradient>
        <radialGradient id="glass" cx="50%" cy="50%" r="50%">
          <stop offset="0%" style="stop-color:#ffffff;stop-opacity:0.6" />
          <stop offset="70%" style="stop-color:#f5f5f5;stop-opacity:0.4" />
          <stop offset="100%" style="stop-color:#e0e0e0;stop-opacity:0.3" />
        </radialGradient>
        <pattern id="crack" patternUnits="userSpaceOnUse" width="4" height="4">
          <path d="M 0 2 L 4 2" stroke="#666" stroke-width="0.5"/>
          <path d="M 2 0 L 2 4" stroke="#666" stroke-width="0.5"/>
        </pattern>
      </defs>
  
  <!-- Background -->
  <rect width="100%" height="100%" fill="url(#bg)"/>
  
  <!-- Glass Panel -->
  
        <rect x="150" y="50" width="500" height="500" fill="url(#glass)" stroke="#ccc" stroke-width="2" rx="10"/>
        <rect x="600" y="50" width="50" height="500" fill="#ddd" stroke="#bbb" stroke-width="1"/>
        <circle cx="625" cy="300" r="8" fill="#999"/>
      
  
  <!-- Damage Overlay (only for before images) -->
  
          <path d="M 300 150 L 400 250 L 350 350 L 280 300 Z" fill="none" stroke="#333" stroke-width="4" opacity="0.7"/>
          <path d="M 350 350 L 500 400 L 450 450 L 400 400" fill="none" stroke="#333" stroke-width="3" opacity="0.6"/>
          <path d="M 280 300 L 220 400" stroke="#666" stroke-width="2" opacity="0.8"/>
          <path d="M 400 250 L 480 200" stroke="#666" stroke-width="2" opacity="0.8"/>
          <ellipse cx="350" cy="300" rx="30" ry="20" fill="none" stroke="#333" stroke-width="2" opacity="0.5"/>
        
  
  <!-- Title -->
  <text x="400" y="40" text-anchor="middle" font-family="Arial, sans-serif" font-size="28" font-weight="bold" fill="#333">
    Shower Door Repair
  </text>
  
  <!-- Status Badge -->
  <rect x="20" y="20" width="200" height="40" fill="#F44336" rx="20" opacity="0.9"/>
  <text x="120" y="45" text-anchor="middle" font-family="Arial, sans-serif" font-size="16" font-weight="bold" fill="white">
    BEFORE - DAMAGED
  </text>
  
  <!-- Description -->
  <text x="400" y="580" text-anchor="middle" font-family="Arial, sans-serif" font-size="16" fill="#666">
    Damaged shower door with visible cracks and chips
  </text>
  
  <!-- Professional watermark -->
  <text x="780" y="590" text-anchor="end" font-family="Arial, sans-serif" font-size="12" fill="#999" opacity="0.7">
    TopGlassRepair.com
  </text>
</svg>