<?xml version="1.0" encoding="UTF-8"?>
<svg width="800" height="600" xmlns="http://www.w3.org/2000/svg">
  <defs>
        <linearGradient id="bg" x1="0%" y1="0%" x2="100%" y2="100%">
          <stop offset="0%" style="stop-color:#f5f5f5;stop-opacity:1" />
          <stop offset="100%" style="stop-color:#e0e0e0;stop-opacity:1" />
        </linearGradient>
        <radialGradient id="glass" cx="50%" cy="50%" r="50%">
          <stop offset="0%" style="stop-color:#ffffff;stop-opacity:0.6" />
          <stop offset="70%" style="stop-color:#f5f5f5;stop-opacity:0.4" />
          <stop offset="100%" style="stop-color:#e0e0e0;stop-opacity:0.3" />
        </radialGradient>
        <pattern id="crack" patternUnits="userSpaceOnUse" width="4" height="4">
          <path d="M 0 2 L 4 2" stroke="#666" stroke-width="0.5"/>
          <path d="M 2 0 L 2 4" stroke="#666" stroke-width="0.5"/>
        </pattern>
      </defs>
  
  <!-- Background -->
  <rect width="100%" height="100%" fill="url(#bg)"/>
  
  <!-- Glass Panel -->
  
        <rect x="50" y="150" width="700" height="350" fill="url(#glass)" stroke="#333" stroke-width="3"/>
        <rect x="50" y="120" width="700" height="30" fill="#666"/>
        <rect x="50" y="500" width="700" height="20" fill="#666"/>
        <rect x="390" y="150" width="20" height="350" fill="#666"/>
        <rect x="350" y="400" width="100" height="100" fill="#444" stroke="#333" stroke-width="2"/>
        <circle cx="420" cy="450" r="3" fill="#999"/>
      
  
  <!-- Damage Overlay (only for before images) -->
  
          <path d="M 200 250 L 300 350 L 250 400 L 180 320 Z" fill="none" stroke="#333" stroke-width="4" opacity="0.8"/>
          <path d="M 250 400 L 350 450 L 320 480 L 280 440" fill="none" stroke="#333" stroke-width="3" opacity="0.7"/>
          <path d="M 500 200 L 600 300 L 550 350 L 480 280 Z" fill="none" stroke="#333" stroke-width="4" opacity="0.8"/>
          <path d="M 180 320 L 120 280" stroke="#666" stroke-width="2" opacity="0.8"/>
          <path d="M 300 350 L 380 320" stroke="#666" stroke-width="2" opacity="0.8"/>
          <path d="M 480 280 L 520 250" stroke="#666" stroke-width="2" opacity="0.8"/>
          <rect x="180" y="300" width="150" height="2" fill="url(#crack)" opacity="0.6"/>
        
  
  <!-- Title -->
  <text x="400" y="40" text-anchor="middle" font-family="Arial, sans-serif" font-size="28" font-weight="bold" fill="#333">
    Storefront Glass Repair
  </text>
  
  <!-- Status Badge -->
  <rect x="20" y="20" width="200" height="40" fill="#F44336" rx="20" opacity="0.9"/>
  <text x="120" y="45" text-anchor="middle" font-family="Arial, sans-serif" font-size="16" font-weight="bold" fill="white">
    BEFORE - DAMAGED
  </text>
  
  <!-- Description -->
  <text x="400" y="580" text-anchor="middle" font-family="Arial, sans-serif" font-size="16" fill="#666">
    Broken storefront glass affecting business appearance
  </text>
  
  <!-- Professional watermark -->
  <text x="780" y="590" text-anchor="end" font-family="Arial, sans-serif" font-size="12" fill="#999" opacity="0.7">
    TopGlassRepair.com
  </text>
</svg>